<svg width="250" height="196" viewBox="0 0 250 196" fill="none" xmlns="http://www.w3.org/2000/svg">
<g clip-path="url(#clip0)">
<path opacity="0.1" d="M87.6959 192.204C111.78 192.204 131.305 188.498 131.305 183.926C131.305 179.355 111.78 175.649 87.6959 175.649C63.6113 175.649 44.0869 179.355 44.0869 183.926C44.0869 188.498 63.6113 192.204 87.6959 192.204Z" fill="#00794E"/>
<path opacity="0.1" d="M145.251 27.6417C129.224 27.0859 113.959 21.9002 99.3834 16.2281C84.8075 10.556 70.3702 4.27349 54.727 1.26871C44.6655 -0.664166 33.1577 -0.939583 25.0526 4.45958C17.2495 9.67017 14.7285 18.6398 13.374 26.9693C12.3537 33.2369 11.7544 39.8345 14.5478 45.7026C16.4892 49.7768 19.9314 53.2009 22.3137 57.1039C30.6021 70.6812 24.743 87.4246 15.7637 100.682C11.5538 106.9 6.66299 112.84 3.41151 119.452C0.160029 126.065 -1.34313 133.667 1.50222 140.431C4.32034 147.13 11.0387 152.152 18.3168 155.688C33.0983 162.871 50.5097 164.926 67.5001 166.092C105.099 168.668 142.896 167.553 180.594 166.434C194.546 166.023 208.557 165.603 222.281 163.442C229.903 162.241 237.771 160.336 243.305 155.735C250.328 149.897 252.069 140.012 247.362 132.692C239.467 120.41 217.645 117.361 212.12 104.183C209.084 96.9277 212.202 88.8488 216.618 82.1222C226.087 67.6888 241.958 55.0271 242.793 38.5319C243.367 27.2026 235.738 15.8559 223.94 10.4939C211.576 4.87395 194.427 5.5811 185.309 14.8832C175.911 24.4509 159.403 28.1355 145.251 27.6417Z" fill="#00794E"/>
<path d="M132.516 89.7561L124.931 84.6324L128.757 78.9255L108.723 77.3251L101.524 82.9029L92.5124 77.8412L84.9966 78.7469L84.9075 76.7619C84.8145 74.6925 84.607 72.6299 84.2859 70.5836C84.3181 69.9633 84.3404 69.2512 84.3379 68.4771C84.3379 65.2142 83.8971 60.8894 81.9606 58.0063L82.4064 53.9916L78.7908 49.7115C79.3715 48.5527 80.0335 47.4366 80.7719 46.3718C80.8958 46.1931 81.0196 46.0194 81.1533 45.8507C85.846 45.5108 89.5482 41.645 89.5482 36.9183C89.5482 36.6999 89.5482 36.4816 89.5235 36.2657C89.5235 36.1789 89.5061 36.0895 89.4962 36.0027C89.9543 36.2508 90.4174 36.4989 90.8805 36.7471C90.9672 36.8711 91.0662 36.9952 91.1752 37.1416L91.1975 37.1689L91.3362 37.3401L91.3807 37.3922C91.4303 37.4517 91.4823 37.5088 91.5343 37.5683L91.5689 37.608C91.7002 37.7544 91.8389 37.9033 91.9874 38.0497C92.0051 38.0641 92.0217 38.0799 92.037 38.0968L92.2227 38.2705L92.2747 38.3177C92.4332 38.4591 92.6016 38.5956 92.77 38.7246L92.8245 38.7643L93.0374 38.9107L93.1068 38.9554C93.1885 39.005 93.2727 39.0571 93.3544 39.1042L93.3841 39.1216C93.4807 39.1737 93.5798 39.2233 93.6788 39.2705L93.7283 39.2903C93.8125 39.3267 93.8951 39.3614 93.976 39.3945L94.0527 39.4218C94.1394 39.4516 94.2236 39.4789 94.3128 39.5037L94.3672 39.5186C94.4762 39.5459 94.5852 39.5682 94.6966 39.5856H94.709C94.8139 39.6026 94.9198 39.6134 95.026 39.6178H95.0978C95.1926 39.6228 95.2877 39.6228 95.3826 39.6178H95.4445C95.5633 39.611 95.6815 39.5969 95.7986 39.5757C96.3527 39.5027 96.8847 39.3114 97.3587 39.0149C97.4794 38.934 97.5864 38.8344 97.6757 38.7196C98.171 38.0696 97.6262 37.3574 97.6262 37.3574C97.433 36.8959 96.18 36.5709 96.18 36.5709C96.18 36.5709 92.2178 34.9134 92.2178 33.5934C92.2178 32.2734 91.2272 25.4252 81.0022 23.8595C81.0022 23.8595 74.3507 23.4849 72.481 27.0529L72.4414 27.4697C71.8917 27.8146 71.436 28.5069 70.8937 28.7103C70.6594 28.7608 70.4334 28.8443 70.2226 28.9585V28.9113C70.16 28.9662 70.1087 29.0328 70.0715 29.1073C69.955 29.3396 69.8852 29.5925 69.866 29.8517C69.8102 30.1684 69.7005 30.473 69.5416 30.7524C69.4973 30.8318 69.4476 30.908 69.393 30.9807L69.3509 31.0477C69.6384 31.0701 69.9271 31.0233 70.1929 30.9112C70.151 31.2509 70.0678 31.5842 69.9452 31.9037C70.1026 31.9088 70.2582 31.8685 70.3934 31.7875C70.5287 31.7066 70.6378 31.5885 70.708 31.4471V31.4273L70.7401 31.3826C70.8024 31.2678 70.8538 31.1473 70.8937 31.0229L70.8664 31.0526C70.916 30.8913 70.9605 30.7276 71.015 30.5688C71.04 30.4793 71.0811 30.3952 71.1364 30.3207C71.2025 30.2539 71.2833 30.2036 71.3723 30.1739C71.4614 30.1442 71.5561 30.1358 71.649 30.1495L71.5474 32.3007H71.592C71.5324 32.4572 71.4595 32.6082 71.3741 32.7523C71.0225 33.323 70.3835 33.7125 70.1483 34.3378C70.0469 34.6394 70.0081 34.9585 70.0344 35.2757C70.0344 35.4618 70.0567 35.6504 70.0715 35.8364V35.8216C70.1062 36.3178 70.1161 36.7892 69.8486 37.1887C69.6654 37.4616 69.3707 37.6676 69.2692 37.9777C69.2411 38.0642 69.2285 38.1549 69.232 38.2457C69.2519 38.5176 69.3086 38.7856 69.4004 39.0422C69.4015 39.0373 69.4015 39.0322 69.4004 39.0273C69.4622 39.2161 69.4766 39.4172 69.4425 39.6129C69.3311 40.1091 68.7293 40.5235 68.759 40.9974C68.7573 41.0597 68.7666 41.1219 68.7863 41.181C68.9021 41.4125 69.1026 41.5903 69.3459 41.6773C69.7277 41.8948 70.1662 41.9917 70.6039 41.9552C70.768 41.9255 70.9266 41.8711 71.0745 41.7939C70.9011 42.1934 70.7228 42.5879 70.542 42.9625C70.5148 43.0221 70.4851 43.0816 70.4554 43.1412C70.4554 43.1412 68.925 42.1164 68.0557 44.2056C67.802 44.6398 67.6205 45.1125 67.5184 45.6051C67.4748 45.8021 67.4135 45.9948 67.3351 46.1807C66.9492 46.8353 66.3717 47.355 65.6809 47.6694C63.9078 48.4833 56.7461 57.4331 56.6198 59.7506C56.5579 60.6552 56.4052 61.5513 56.1642 62.4253C55.6004 64.4836 55.4556 66.6345 55.7383 68.75C55.8267 69.4337 55.9734 70.1086 56.1766 70.7672C56.9368 73.0822 57.4445 77.4021 57.4445 77.4021L58.2666 84.9003C58.2361 85.9352 58.2808 86.971 58.4004 87.9994C57.5609 88.9596 54.1905 92.9619 55.4782 94.0511C56.4688 94.9096 58.2023 94.7682 59.1755 94.592C58.3558 96.6242 57.0656 100.157 56.8947 102.584C56.6471 106.174 57.3182 110.931 58.3806 112.757C59.4429 114.583 62.9841 119.268 62.9841 119.268C62.9841 119.268 62.8182 125.694 64.0836 128.029C65.3491 130.364 65.8592 135.207 65.8592 135.207C65.8592 135.207 67.0404 139.296 66.4486 140.8C65.8567 142.304 67.5456 143.554 65.7725 144.554C63.9994 145.554 61.7311 168.091 61.7311 168.091C61.7311 168.091 60.8173 182.862 61.7311 183.614C61.78 183.649 61.8322 183.68 61.8871 183.705V188.668C61.8871 188.668 61.2531 189.71 63.8311 189.921C65.5967 190.062 70.6015 190.382 73.5706 190.569L75.8712 190.712C75.8712 190.712 81.3192 191.799 83.7263 190.712C86.1333 189.626 90.4001 189.651 89.7661 186.78C89.6821 186.389 89.5695 186.005 89.4294 185.631C88.7335 183.849 87.5523 183.646 85.3755 183.15C85.2492 183.122 85.1279 183.098 85.0165 183.078C82.7233 182.678 81.9705 183.748 80.6853 182.356C79.5684 181.152 76.0124 179.805 74.8014 179.378C74.8311 179.289 74.8683 179.202 74.898 179.11C74.5551 179.052 74.2361 178.896 73.9792 178.661L77.2604 178.87L79.2143 178.991C79.2143 178.991 83.8451 179.917 85.9005 178.991C87.9559 178.066 91.5714 178.09 91.0316 175.651C90.9605 175.319 90.8653 174.992 90.7468 174.674C90.1549 173.16 89.1495 172.994 87.2997 172.575C87.1932 172.552 87.0941 172.53 86.9951 172.513C85.0462 172.173 84.4073 173.081 83.3152 171.9C82.3791 170.892 79.4248 169.763 78.3624 169.379C78.3624 168.828 77.6195 168.044 77.1515 167.257C76.6017 166.339 77.617 163.126 77.617 163.126L78.1965 149.794C78.4172 149.696 78.6506 149.629 78.8899 149.596C78.8899 149.596 81.5099 147.09 80.918 144.42C80.7975 143.613 80.7346 142.798 80.7298 141.981C81.5916 141.18 82.7778 139.996 83.1146 139.267C83.6643 138.078 83.1146 132.319 83.1146 132.319V110.298L87.4978 110.742L91.4748 111.152L92.6858 111.276L96.6628 111.678L105.803 112.603L114.04 111.04L117.603 110.365L124.931 108.976V91.0116L132.516 89.7561ZM72.1888 30.2289L71.6787 30.1743C71.8471 30.1817 72.0254 30.214 72.1888 30.2289Z" fill="url(#paint0_linear)"/>
<path d="M114.738 101.42C112.262 104.971 103.359 103.09 103.359 103.09L96.4598 96.6217L95.5311 95.7458L97.0888 92.4309C97.0888 92.4309 97.584 92.5673 98.4334 92.8105C102.893 94.1082 116.828 98.4355 114.738 101.42Z" fill="#EFB7B9"/>
<path opacity="0.1" d="M98.4285 92.8105C98.1239 93.8725 97.2894 95.4629 96.4598 96.6217L95.5311 95.7458L97.0888 92.4309C97.0888 92.4309 97.589 92.5673 98.4285 92.8105Z" fill="#0B0C11"/>
<path d="M74.7668 55.4283C74.7668 55.4283 68.4075 58.2544 68.7195 65.1944C68.944 69.6655 69.4302 74.1195 70.1756 78.5335C70.1756 78.5335 68.8755 88.977 74.2889 91.6691C79.7022 94.3613 84.7119 96.5745 84.7119 96.5745C84.7119 96.5745 93.1811 97.4876 94.2336 97.8648C95.2861 98.2419 98.5747 92.4755 97.968 91.5773C97.3613 90.6791 89.5879 88.7959 88.5974 87.2972C87.6068 85.7985 85.3162 84.873 85.3162 84.873C85.3162 84.873 82.9512 83.4389 82.7903 82.1437C82.6293 80.8485 83.2533 79.8833 83.4118 79.3151C83.5703 78.7469 83.9715 73.2609 83.9715 73.2609C83.9715 73.2609 86.641 53.7336 74.7668 55.4283Z" fill="#DCE6F2"/>
<path opacity="0.1" d="M78.9642 78.2482C78.9642 78.2482 70.24 79.7121 71.0844 82.7714C71.0844 82.7714 74.2517 79.4689 78.9642 78.2482Z" fill="#0B0C11"/>
<path opacity="0.1" d="M79.0311 79.4863C79.0311 79.4863 74.2343 83.4091 75.1729 83.6101C76.1114 83.8111 79.0311 79.4863 79.0311 79.4863Z" fill="#0B0C11"/>
<path opacity="0.1" d="M81.3366 80.8534C81.3366 80.8534 80.0514 83.491 80.8413 83.3123C81.6313 83.1337 81.3366 80.8534 81.3366 80.8534Z" fill="#0B0C11"/>
<path opacity="0.1" d="M98.7504 93.0909L98.2205 92.9395C98.3715 92.4433 98.4137 92.0413 98.2898 91.8552C97.6831 90.957 89.9147 89.0762 88.9267 87.5751C87.9386 86.074 85.6455 85.1509 85.6455 85.1509C85.6455 85.1509 83.2805 83.7168 83.1196 82.4216C82.9586 81.1264 83.5827 80.1612 83.7411 79.593C83.8996 79.0248 84.3008 73.5363 84.3008 73.5363C84.3008 73.5363 86.9629 54.0115 75.0887 55.7062C75.0887 55.7062 68.7294 58.5348 69.0389 65.4748C69.2635 69.9459 69.7505 74.4 70.4975 78.8139C70.4975 78.8139 69.1974 89.2574 74.6107 91.9495C80.0241 94.6416 85.0338 96.8549 85.0338 96.8549C85.0338 96.8549 93.5005 97.7655 94.5555 98.1451C94.9542 98.2891 95.6748 97.5472 96.3805 96.5274L96.7817 96.902L103.681 103.368C103.681 103.368 112.583 105.251 115.06 101.701C117.152 98.7133 103.22 94.3861 98.7504 93.0909Z" fill="#0B0C11"/>
<path d="M71.1066 29.3803C70.8642 29.4278 70.632 29.5176 70.4207 29.6458C70.173 29.8517 70.173 30.204 70.1111 30.5117C70.0384 30.9397 69.869 31.3454 69.6158 31.6977C69.8976 31.7185 70.1803 31.6717 70.4405 31.5613C70.3981 31.9009 70.3149 32.2341 70.1928 32.5538C70.3471 32.5577 70.4993 32.517 70.6311 32.4364C70.7628 32.3559 70.8686 32.239 70.9358 32.0997C71.0668 31.8201 71.1705 31.5284 71.2453 31.2288C71.2686 31.1392 71.3089 31.0549 71.3642 30.9807C71.592 30.7102 72.0155 30.8318 72.3671 30.8665C72.6597 30.8913 72.9537 30.8371 73.2184 30.7097C73.4831 30.5823 73.7091 30.3863 73.8727 30.142C74.2467 29.5738 74.269 28.1198 73.3775 27.966C72.4463 27.8121 71.8669 29.0974 71.1066 29.3803Z" fill="#07080C"/>
<g opacity="0.1">
<path opacity="0.1" d="M70.3959 29.951C70.4182 29.8294 70.4331 29.7028 70.4603 29.5813C70.225 29.7872 70.2127 30.1371 70.1507 30.4472C70.1196 30.6262 70.0706 30.8015 70.0046 30.9707C70.1996 30.6594 70.3325 30.313 70.3959 29.951Z" fill="#0B0C11"/>
<path opacity="0.1" d="M70.4751 32.0005C70.5984 31.6812 70.6816 31.3478 70.7228 31.008C70.4748 31.1125 70.2064 31.1592 69.9377 31.1444C69.8595 31.3189 69.7641 31.4852 69.653 31.6407C69.9338 31.6624 70.2157 31.6165 70.4751 31.5067C70.434 31.8465 70.3508 32.1799 70.2275 32.4992C70.3817 32.5028 70.5338 32.4619 70.6655 32.3814C70.7972 32.3009 70.903 32.1842 70.9704 32.0451C71.0321 31.9323 71.0819 31.8134 71.119 31.6903C71.0463 31.792 70.9492 31.8738 70.8367 31.928C70.7242 31.9822 70.5998 32.0071 70.4751 32.0005Z" fill="#0B0C11"/>
<path opacity="0.1" d="M72.6494 30.3132C72.2978 30.2785 71.8718 30.1569 71.644 30.4274C71.5898 30.5022 71.5495 30.5863 71.5251 30.6755C71.5028 30.74 71.483 30.807 71.4657 30.874C71.701 30.6879 72.0823 30.7871 72.4018 30.8194C72.6943 30.8433 72.988 30.7888 73.2526 30.6615C73.5171 30.5342 73.7432 30.3386 73.9074 30.0949C73.9825 29.9744 74.0384 29.843 74.0733 29.7053C73.9037 29.9156 73.6852 30.081 73.437 30.187C73.1887 30.293 72.9183 30.3363 72.6494 30.3132Z" fill="#0B0C11"/>
</g>
<path d="M78.5606 49.8728L82.337 54.4234L81.8442 59.0161L77.2803 51.8578L78.5606 49.8728Z" fill="#DCE6F2"/>
<path opacity="0.1" d="M82.3346 54.4234L81.8715 58.7432L81.8418 59.0161L77.7235 52.555L77.2803 51.8578L77.409 51.6568L78.5581 49.8728L78.8132 50.1805L82.3346 54.4234Z" fill="#0B0C11"/>
<path d="M84.2957 43.7119C83.0179 44.0791 81.7971 45.3396 80.7347 46.8705C80.0167 47.9268 79.3745 49.0329 78.813 50.1804C78.4639 50.8801 78.1568 51.5526 77.9017 52.1381L77.7234 52.555C77.2925 53.5748 77.0523 54.2571 77.0523 54.2571C77.0523 54.2571 67.2707 46.8878 68.8184 46.3916C69.3384 46.2254 70.0219 45.1088 70.698 43.7019L70.7822 43.5233C71.2106 42.6201 71.6316 41.6127 72.0055 40.6649C72.7707 38.7172 73.3378 37.025 73.3378 37.025C73.3378 37.025 88.196 42.5953 84.2957 43.7119Z" fill="#EFB7B9"/>
<path d="M90.1475 36.6106C90.1475 36.6106 92.4059 40.7046 95.4395 40.1463C98.473 39.5881 97.2249 37.948 97.2249 37.948L90.1475 36.6106Z" fill="#1E202C"/>
<path d="M85.7717 178.326C83.7708 179.242 79.2465 178.326 79.2465 178.326L77.3397 178.207C74.8633 178.048 70.7178 177.78 69.2518 177.661C67.1122 177.485 67.6372 176.607 67.6372 176.607V171.299L78.0182 168.664C78.0182 168.664 82.1215 170.071 83.2458 171.299C84.3131 172.47 84.9372 171.57 86.8415 171.907C86.9356 171.925 87.0347 171.944 87.1387 171.969C88.9464 172.384 89.9271 172.547 90.5066 174.049C90.623 174.364 90.7165 174.687 90.7864 175.016C91.3213 177.433 87.7702 177.416 85.7717 178.326Z" fill="#07080C"/>
<path opacity="0.1" d="M90.5065 174.049C90.1346 174.281 89.7435 174.482 89.3377 174.649C87.9757 175.272 86.6805 176.031 85.3037 176.619C83.9268 177.207 82.4435 177.626 80.9527 177.515C80.1726 177.458 79.3752 177.267 78.6298 177.49C78.1689 177.668 77.7347 177.91 77.3397 178.207C74.8633 178.048 70.7178 177.78 69.2518 177.661C67.1122 177.485 67.6372 176.607 67.6372 176.607V175.986C67.714 175.986 67.8007 175.964 67.8997 175.957C68.4122 175.948 68.9225 176.025 69.4103 176.182C70.485 176.475 71.5548 176.763 72.6296 177.051C72.718 176.717 72.8733 176.404 73.0862 176.132C73.2991 175.86 73.565 175.634 73.8678 175.468C74.4812 175.142 75.1697 174.983 75.8637 175.009C77.5303 175.031 79.1078 175.823 80.7719 175.902C81.2372 175.945 81.7056 175.866 82.1314 175.674C82.3593 175.56 82.5599 175.393 82.7827 175.267C83.1394 175.094 83.5163 174.966 83.9045 174.887C84.9958 174.615 86.0673 174.268 87.1114 173.85C87.4086 173.733 87.7553 173.523 87.7157 173.205C87.6637 172.783 87.0025 172.733 86.8291 172.346C86.7985 172.277 86.7844 172.201 86.7878 172.124C86.7913 172.048 86.8122 171.974 86.8489 171.907C86.943 171.925 87.0421 171.944 87.1461 171.969C88.9464 172.384 89.9271 172.547 90.5065 174.049Z" fill="#0B0C11"/>
<path d="M83.657 189.938C81.3044 191.015 75.9802 189.938 75.9802 189.938L73.7391 189.807C70.8368 189.621 65.9484 189.311 64.2224 189.164C61.7039 188.956 62.323 187.924 62.323 187.924V181.668L74.539 178.567C74.539 178.567 79.3679 180.222 80.6903 181.668C81.9458 183.045 82.6714 181.986 84.9224 182.383C85.0338 182.403 85.1502 182.428 85.2716 182.455C87.3988 182.951 88.5528 183.137 89.2338 184.904C89.3716 185.275 89.4817 185.656 89.5631 186.043C90.1773 188.886 86.0095 188.864 83.657 189.938Z" fill="#07080C"/>
<path opacity="0.1" d="M89.2288 184.904C88.7912 185.178 88.3315 185.414 87.8544 185.611C86.2522 186.343 84.7268 187.236 83.1072 187.929C81.4877 188.621 79.7418 189.112 77.9861 188.983C77.0698 188.916 76.1313 188.685 75.2621 188.953C74.7174 189.166 74.2049 189.453 73.7391 189.807C70.8368 189.621 65.9484 189.311 64.2224 189.164C61.7039 188.956 62.323 187.924 62.323 187.924V187.194C62.4255 187.177 62.5288 187.166 62.6325 187.159C63.2358 187.148 63.8367 187.238 64.4106 187.425L68.197 188.447C68.3024 188.053 68.4871 187.684 68.7395 187.364C68.992 187.043 69.3071 186.778 69.6654 186.584C70.3872 186.198 71.1982 186.012 72.0155 186.043C73.9768 186.07 75.8316 187.001 77.7904 187.095C78.336 187.145 78.8851 187.053 79.3852 186.829C79.6551 186.693 79.8805 186.497 80.1529 186.35C80.5717 186.145 81.0154 185.995 81.4728 185.904C82.7499 185.581 84.0041 185.173 85.227 184.683C85.5762 184.544 85.9848 184.296 85.9377 183.924C85.8758 183.428 85.0982 183.368 84.8927 182.912C84.858 182.829 84.8423 182.74 84.8466 182.651C84.8508 182.561 84.8751 182.474 84.9174 182.395C85.0289 182.415 85.1453 182.44 85.2666 182.467C87.3938 182.944 88.5478 183.137 89.2288 184.904Z" fill="#0B0C11"/>
<path d="M78.3327 147.015L77.6715 162.605C77.6715 162.605 76.681 165.788 77.2184 166.699C77.7557 167.61 78.6621 168.518 78.3327 169.056C78.0034 169.595 74.0412 175.416 72.7609 173.183C71.4806 170.949 70.2177 161.273 70.2177 161.273L71.3989 149.321L78.3327 147.015Z" fill="#1E202C"/>
<path d="M81.2004 108.174L83.0379 110.636V132.044C83.0379 132.044 83.5753 137.751 83.0379 138.929C82.5005 140.108 79.7765 142.465 79.7765 142.465L77.4858 130.679L77.9811 118.211L81.2004 108.174Z" fill="#1E202C"/>
<path opacity="0.1" d="M78.3327 147.015L77.6715 162.605C77.6715 162.605 76.681 165.788 77.2184 166.699C77.7557 167.61 78.6621 168.518 78.3327 169.056C78.0034 169.595 74.0412 175.416 72.7609 173.183C71.4806 170.949 70.2177 161.273 70.2177 161.273L71.3989 149.321L78.3327 147.015Z" fill="#0B0C11"/>
<path opacity="0.1" d="M81.2004 108.174L83.0379 110.636V132.044C83.0379 132.044 83.5753 137.751 83.0379 138.929C82.5005 140.108 79.7765 142.465 79.7765 142.465L77.4858 130.679L77.9811 118.211L81.2004 108.174Z" fill="#0B0C11"/>
<path d="M83.0379 99.0434V110.623L80.9751 119.638C80.9751 119.638 80.3139 141.391 80.8909 144.036C81.4679 146.681 78.9098 149.164 78.9098 149.164C78.9098 149.164 77.424 149.331 77.424 150.487C77.424 151.643 74.9476 154.953 74.9476 154.953L75.0293 161.404C75.0293 161.404 76.1041 173.48 74.4523 175.795C72.8006 178.11 75.0293 178.443 75.0293 178.443C72.9665 185.224 63.061 183.653 62.167 182.909C61.2731 182.165 62.167 167.525 62.167 167.525C62.167 167.525 64.3809 145.194 66.1144 144.202C67.8478 143.209 66.1986 141.969 66.7756 140.48C67.3526 138.991 66.1986 134.939 66.1986 134.939C66.1986 134.939 65.7033 130.141 64.4651 127.826C63.2269 125.511 63.3904 119.141 63.3904 119.141C63.3904 119.141 59.9234 114.509 58.8933 112.69C57.8631 110.871 57.1994 106.157 57.4471 102.599C57.6155 100.195 58.8759 96.6936 59.6758 94.6789C60.0596 93.7137 60.337 93.0884 60.337 93.0884L60.5723 93.1504L74.0982 96.6986L83.0379 99.0434Z" fill="#1E202C"/>
<path opacity="0.1" d="M84.2958 43.7119C83.018 44.0791 81.7971 45.3396 80.7348 46.8705H80.4574C78.9002 46.8716 77.3703 46.4608 76.0224 45.6796C74.6744 44.8985 73.5562 43.7746 72.7806 42.4216C72.4565 41.861 72.1957 41.266 72.0031 40.6476C72.7683 38.6998 73.3353 37.0076 73.3353 37.0076C73.3353 37.0076 88.1961 42.5953 84.2958 43.7119Z" fill="#0B0C11"/>
<path d="M89.3104 37.5088C89.3126 38.8664 89.0038 40.2064 88.4077 41.4256C87.8116 42.6448 86.9441 43.7106 85.8721 44.541C84.8001 45.3714 83.5522 45.9441 82.2245 46.2151C80.8968 46.4861 79.5247 46.4481 78.214 46.104C76.9032 45.76 75.6888 45.1191 74.6642 44.2307C73.6396 43.3423 72.8322 42.2301 72.3042 40.9798C71.7762 39.7294 71.5417 38.3744 71.6187 37.0189C71.6957 35.6635 72.0822 34.3439 72.7484 33.1617C73.0168 32.6813 73.3303 32.2277 73.6845 31.8069C74.2685 31.1098 74.9549 30.5058 75.7201 30.0155C77.0126 29.1925 78.4962 28.7195 80.0257 28.6428C81.5552 28.5661 83.0785 28.8882 84.4466 29.5777C85.8147 30.2673 86.9809 31.3006 87.8312 32.5768C88.6816 33.8529 89.187 35.3283 89.2981 36.8587C89.303 37.0771 89.3104 37.2929 89.3104 37.5088Z" fill="#EFB7B9"/>
<path opacity="0.1" d="M81.8714 58.7432L81.8417 59.0161L77.7234 52.5649C77.2925 53.5847 77.0523 54.267 77.0523 54.267C77.0523 54.267 67.2707 46.8879 68.8184 46.3916C69.3384 46.2254 70.0219 45.1088 70.698 43.7019L70.7822 43.5233C71.5003 45.6671 75.673 49.9522 77.4089 51.6692C77.6095 51.8677 77.7754 52.0314 77.9042 52.1505L78.1692 52.3987L78.3079 52.5376C78.9393 53.1902 81.6039 56.0684 81.8714 58.7432Z" fill="#0B0C11"/>
<path d="M84.9497 80.6326L84.499 95.1652L84.4197 97.7531C84.4197 97.7531 79.0807 97.2569 74.0982 96.711C70.0865 96.2718 66.305 95.7979 65.7231 95.52C64.9802 95.1702 63.3879 94.8997 62.1323 94.7285C61.1616 94.597 60.3989 94.5275 60.3989 94.5275C60.3989 94.5275 60.1141 94.6119 59.6758 94.6913C58.7199 94.865 57.0409 95.0064 56.0627 94.1553C54.8122 93.0661 58.0983 89.1085 58.918 88.1582L59.0988 87.9522L58.7892 85.0864L57.9844 77.6551C57.9844 77.6551 57.4891 73.375 56.7462 71.0799C56.5476 70.4273 56.4043 69.7592 56.3178 69.0825C56.0418 66.9863 56.1832 64.856 56.7338 62.8149C56.9691 61.9476 57.1184 61.0591 57.1796 60.1624C57.3034 57.8673 64.2992 48.9969 66.0326 48.1905C66.8124 47.8261 67.4399 47.1992 67.8057 46.4189C67.9265 46.1736 68.0171 45.9144 68.0756 45.6472C68.8186 42.4216 70.6981 43.7019 70.6981 43.7019C71.1513 46.2254 78.1669 52.9048 78.1669 52.9048L78.3055 53.0438C79.0014 53.7584 82.1018 57.113 81.8814 59.9763C81.8374 61.0421 81.9962 62.1064 82.3495 63.1126C83.7765 67.6148 84.5968 72.2877 84.7887 77.0075L84.9497 80.6326Z" fill="#DCE6F2"/>
<path opacity="0.1" d="M75.0094 63.3756C75.0094 63.3756 73.2759 67.5937 71.9758 68.2761C70.6757 68.9584 75.6285 69.7152 75.0094 63.3756Z" fill="#0B0C11"/>
<path opacity="0.1" d="M76.3096 71.2536C76.3096 71.2536 72.3474 71.7498 72.3474 72.4942C72.3474 73.2385 76.3096 71.2536 76.3096 71.2536Z" fill="#0B0C11"/>
<path opacity="0.1" d="M80.4574 76.092C80.4574 76.092 74.6998 88.3741 73.0902 88.7462C71.4805 89.1184 80.4574 76.092 80.4574 76.092Z" fill="#0B0C11"/>
<path opacity="0.1" d="M78.0577 53.5276L73.2956 55.6019L67.548 46.9027C67.6687 46.6574 67.7594 46.3983 67.8179 46.1311C68.5608 42.9055 70.4404 44.1858 70.4404 44.1858C70.8936 46.7092 77.9091 53.3887 77.9091 53.3887L78.0577 53.5276Z" fill="#0B0C11"/>
<path d="M78.3054 53.0314L73.5433 55.1057L67.7957 46.4065C67.9164 46.1611 68.0071 45.902 68.0656 45.6348C68.8085 42.4092 70.6881 43.6895 70.6881 43.6895C71.1412 46.213 78.1568 52.8924 78.1568 52.8924L78.3054 53.0314Z" fill="#DCE6F2"/>
<path opacity="0.1" d="M84.4196 97.7531C84.4196 97.7531 79.0805 97.2569 74.098 96.711L83.0377 99.0558V101.785C82.6465 102.14 82.3072 102.324 82.0868 102.229C81.0566 101.795 72.6494 100.43 72.6494 100.43C72.6494 100.43 67.7659 97.9491 62.4962 94.9717C62.3683 94.9007 62.2443 94.8228 62.1248 94.7384C61.5103 94.3204 60.9809 93.7891 60.5646 93.1728C59.5914 91.761 59.116 89.9472 58.9104 88.1681C58.7949 87.1486 58.7519 86.122 58.7817 85.0964C58.8072 83.9333 58.9131 82.7735 59.0986 81.6251C58.589 77.1774 58.3409 72.7034 58.3557 68.2265C58.4176 61.279 64.9181 58.7978 64.9181 58.7978C76.8666 57.7432 73.162 77.0969 73.162 77.0969C73.162 77.0969 72.4711 82.5556 72.2829 83.1139C72.0946 83.6721 71.4186 84.6026 71.5102 85.9052C71.6018 87.2079 73.8851 88.7661 73.8851 88.7661C73.8851 88.7661 76.1138 89.8132 77.0325 91.364C77.7012 92.5078 82.0447 94.0586 84.4988 95.1652L84.4196 97.7531Z" fill="#0B0C11"/>
<path opacity="0.1" d="M88.4215 32.0005C88.4261 32.4091 88.3416 32.8139 88.1739 33.1865C88.0469 33.4905 87.8997 33.7856 87.7331 34.0698C87.4725 34.5925 87.1025 35.0529 86.6484 35.4196C86.0764 35.829 85.3533 35.9431 84.6673 36.1094C83.9814 36.2756 83.2682 36.5411 82.8769 37.1267C82.6649 37.5031 82.523 37.9151 82.4584 38.3425C82.3928 38.7695 82.2226 39.1736 81.9631 39.5186C81.828 39.687 81.6408 39.8057 81.4311 39.856C81.2213 39.9064 81.0008 39.8854 80.8042 39.7965C80.5971 39.6566 80.44 39.454 80.356 39.2184C80.0736 38.5807 80.0018 37.8735 79.8879 37.1862C79.774 36.4989 79.613 35.7918 79.1921 35.2385C78.7711 34.6852 78.0257 34.3204 77.3645 34.5363C77.1432 34.6216 76.9414 34.7509 76.7712 34.9163C76.6009 35.0818 76.4658 35.28 76.3739 35.499C76.1909 35.9375 76.0653 36.3979 76 36.8686C75.6929 38.5526 75.3306 40.2266 74.9129 41.8906C74.9001 41.9589 74.8722 42.0233 74.8312 42.0792C74.7653 42.145 74.6765 42.1824 74.5835 42.1834C74.0288 42.2579 73.4964 41.8683 72.9367 41.9105C72.8791 41.9143 72.8219 41.9235 72.7659 41.9378C71.861 40.3621 71.4614 38.5458 71.6214 36.735C71.7813 34.9242 72.4929 33.2064 73.6598 31.8144L73.7044 31.802C74.0767 31.6695 74.415 31.456 74.6949 31.1767C75.0524 30.8183 75.3835 30.4343 75.6855 30.0279L75.8836 29.7798C76.4528 29.0927 77.1012 28.4755 77.8152 27.9412C78.0101 27.7812 78.2337 27.6599 78.4739 27.5839C78.6795 27.5437 78.8902 27.537 79.098 27.564C79.9532 27.6669 80.8154 27.6992 81.6759 27.6608C82.2754 27.5663 82.8798 27.505 83.4861 27.4772C85.0536 27.5218 86.3909 28.6309 87.3814 29.8467C87.9139 30.4695 88.3893 31.1866 88.4215 32.0005Z" fill="#0B0C11"/>
<path d="M71.5919 33.3974C71.2477 33.9631 70.6261 34.3477 70.3933 34.968C70.0516 35.8687 70.6286 36.9902 70.0987 37.7941C69.9228 38.0646 69.6331 38.2656 69.534 38.5757C69.3657 39.0993 69.8263 39.6575 69.7074 40.196C69.5885 40.7344 68.8803 41.1885 69.0685 41.7145C69.1797 41.9439 69.3748 42.1216 69.6133 42.2107C69.9885 42.4264 70.4204 42.5225 70.8515 42.4861C71.5275 42.3745 72.0302 41.7095 72.7162 41.6599C73.2734 41.6202 73.8058 42.0073 74.3605 41.9353C74.4535 41.9321 74.5418 41.894 74.6081 41.8286C74.6502 41.7733 74.6783 41.7086 74.6899 41.64C75.1059 39.9776 75.4691 38.3036 75.7795 36.618C75.8427 36.1471 75.9676 35.6866 76.1509 35.2484C76.2435 35.0298 76.3789 34.832 76.549 34.6667C76.7192 34.5013 76.9206 34.3718 77.1415 34.2857C77.8027 34.0723 78.5456 34.4345 78.969 34.9879C79.3925 35.5412 79.5535 36.2483 79.6674 36.9356C79.7813 37.6229 79.8531 38.3301 80.1329 38.9678C80.218 39.2043 80.3758 39.4076 80.5836 39.5484C80.9551 39.7642 81.4553 39.593 81.7401 39.2705C82.001 38.9253 82.1713 38.5201 82.2354 38.0919C82.3 37.6653 82.4418 37.2541 82.6539 36.8786C83.0452 36.293 83.7608 36.0275 84.4443 35.8613C85.1278 35.695 85.8484 35.5784 86.4254 35.169C86.8789 34.8027 87.2487 34.3433 87.5101 33.8217C87.8766 33.1815 88.2183 32.4868 88.1886 31.7499C88.1564 30.9459 87.6809 30.2289 87.1733 29.6036C86.1827 28.3878 84.843 27.2787 83.2755 27.2365C82.669 27.2619 82.0645 27.3232 81.4652 27.4201C80.6047 27.4589 79.7424 27.4257 78.8873 27.3209C78.6794 27.2959 78.4689 27.3035 78.2633 27.3432C78.0227 27.4168 77.7995 27.5383 77.607 27.7005C76.8923 28.234 76.2431 28.8503 75.673 29.5366C75.3054 30.025 74.9067 30.4891 74.4794 30.9261C74.1993 31.2058 73.8611 31.4202 73.4888 31.5538C73.2412 31.6233 72.9935 31.5737 72.7583 31.6506C72.0278 31.8814 71.9312 32.8366 71.5919 33.3974Z" fill="#07080C"/>
<path opacity="0.1" d="M95.4395 40.1439C93.4584 40.5086 91.8165 38.9032 90.9077 37.7321C90.6286 37.3764 90.3745 37.0017 90.1475 36.6106L96.9476 37.8959L97.2224 37.948C97.2224 37.948 98.473 39.5881 95.4395 40.1439Z" fill="#0B0C11"/>
<g opacity="0.1">
<path opacity="0.1" d="M69.7076 39.4863C69.7353 39.1618 69.6861 38.8354 69.564 38.5335C69.564 38.5584 69.5417 38.5832 69.5343 38.608C69.4278 38.9405 69.5714 39.2854 69.6631 39.6302C69.6827 39.5839 69.6977 39.5357 69.7076 39.4863Z" fill="#0B0C11"/>
<path opacity="0.1" d="M70.2969 35.4246C70.2714 35.7677 70.2781 36.1124 70.3167 36.4543C70.3421 36.1112 70.3355 35.7664 70.2969 35.4246Z" fill="#0B0C11"/>
<path opacity="0.1" d="M87.4953 33.1046C87.2347 33.6273 86.8647 34.0877 86.4107 34.4544C85.8386 34.8638 85.118 34.9779 84.4296 35.1442C83.7411 35.3104 83.0304 35.5759 82.6391 36.1615C82.4274 36.5381 82.2856 36.95 82.2206 37.3773C82.1561 37.8054 81.9859 38.2105 81.7253 38.5559C81.4406 38.8784 80.9403 39.0521 80.5689 38.8338C80.361 38.693 80.2032 38.4897 80.1182 38.2532C79.8384 37.6155 79.7641 36.9108 79.6526 36.221C79.5412 35.5312 79.3753 34.8266 78.9543 34.2733C78.5333 33.72 77.7879 33.3552 77.1267 33.5711C76.9056 33.6568 76.704 33.7862 76.5338 33.9516C76.3637 34.117 76.2284 34.315 76.1362 34.5338C75.9528 34.972 75.8279 35.4325 75.7647 35.9034C75.456 37.589 75.0928 39.263 74.6751 40.9255C74.6635 40.994 74.6355 41.0587 74.5934 41.114C74.5271 41.1794 74.4387 41.2175 74.3457 41.2207C73.791 41.2927 73.2586 40.9056 72.7014 40.9453C72.0155 40.9949 71.5128 41.6599 70.8367 41.7691C70.4055 41.8078 69.9729 41.7116 69.5985 41.4937C69.4264 41.4195 69.2719 41.3095 69.1453 41.1711C69.0874 41.2542 69.049 41.3495 69.0332 41.4496C69.0173 41.5497 69.0243 41.6522 69.0537 41.7492C69.1628 41.9802 69.3586 42.1586 69.5985 42.2455C69.9729 42.4634 70.4055 42.5596 70.8367 42.5209C71.5128 42.4117 72.0155 41.7467 72.7014 41.6971C73.2586 41.6574 73.791 42.0445 74.3457 41.9725C74.4387 41.9693 74.5271 41.9312 74.5934 41.8658C74.6355 41.8105 74.6635 41.7458 74.6751 41.6773C75.0911 40.0231 75.4543 38.3491 75.7647 36.6552C75.8279 36.1843 75.9528 35.7238 76.1362 35.2856C76.2284 35.0668 76.3637 34.8688 76.5338 34.7034C76.704 34.538 76.9056 34.4086 77.1267 34.3229C77.7879 34.107 78.5308 34.4718 78.9543 35.0251C79.3777 35.5784 79.5387 36.2855 79.6526 36.9728C79.7665 37.6601 79.8384 38.3673 80.1182 39.005C80.2032 39.2415 80.361 39.4448 80.5689 39.5856C80.9403 39.8015 81.4406 39.6302 81.7253 39.3077C81.9859 38.9623 82.1561 38.5572 82.2206 38.1291C82.2856 37.7018 82.4274 37.2899 82.6391 36.9133C83.0304 36.3277 83.7461 36.0647 84.4296 35.896C85.113 35.7273 85.8337 35.6156 86.4107 35.2062C86.8647 34.8395 87.2347 34.3792 87.4953 33.8564C87.8618 33.2187 88.2036 32.524 88.1738 31.7871C88.169 31.6923 88.159 31.5979 88.1441 31.5042C88.0246 32.0721 87.8049 32.6141 87.4953 33.1046Z" fill="#0B0C11"/>
</g>
<path opacity="0.1" d="M88.1838 33.179C88.8188 34.3104 89.1952 35.5689 89.2858 36.8637C87.0793 35.6231 85.0041 34.2609 83.9566 33.7869C82.1315 32.9607 75.3066 33.0848 72.7411 33.1617C73.0095 32.6813 73.3229 32.2277 73.6772 31.8069C74.2634 31.1093 74.9523 30.5052 75.7202 30.0155C76.7371 29.3688 77.8749 28.9368 79.0641 28.7457C80.2534 28.5546 81.469 28.6086 82.6367 28.9042C83.8044 29.1998 84.8997 29.731 85.8556 30.4651C86.8115 31.1993 87.6079 32.121 88.1961 33.1741L88.1838 33.179Z" fill="#0B0C11"/>
<path opacity="0.1" d="M96.0586 39.0918C94.8674 39.459 92.9235 38.7494 90.9077 37.7321C90.6286 37.3764 90.3745 37.0017 90.1475 36.6106L96.9476 37.8959C97.3983 38.2035 97.5122 38.6427 96.0586 39.0918Z" fill="#0B0C11"/>
<path d="M80.985 24.5766C80.985 24.5766 74.4845 24.2044 72.657 27.7402L72.3623 30.874L71.867 30.8194L71.7679 32.9508C71.7679 32.9508 81.7032 32.5166 83.9641 33.5388C86.225 34.5611 93.2505 39.7121 96.0661 38.8437C98.8818 37.9753 95.8185 37.1689 95.8185 37.1689C95.8185 37.1689 91.943 35.5238 91.943 34.2336C91.943 32.9433 90.9821 26.1274 80.985 24.5766Z" fill="#1E202C"/>
<path opacity="0.1" d="M68.447 140.748C68.447 140.748 72.5949 144.78 74.3903 144.47C74.3903 144.47 69.3138 144.036 68.447 140.748Z" fill="#0B0C11"/>
<path opacity="0.1" d="M67.5803 142.616C67.5803 142.616 67.9518 144.691 68.9423 144.487C69.9329 144.284 67.5803 142.616 67.5803 142.616Z" fill="#0B0C11"/>
<path opacity="0.1" d="M74.0809 177.284C74.0809 177.284 68.1921 181.874 69.1851 181.998C70.1781 182.122 74.0809 177.284 74.0809 177.284Z" fill="#0B0C11"/>
<path d="M81.9581 86.1806L101.026 83.0717V101.16L82.9091 100.21L81.9581 86.1806Z" fill="#00794E"/>
<path opacity="0.05" d="M81.9581 86.1806L101.026 83.0717V101.16L82.9091 100.21L81.9581 86.1806Z" fill="#0B0C11"/>
<path d="M101.026 83.0717L123.893 84.7862L122.628 100.527L101.026 101.16V83.0717Z" fill="#00794E"/>
<path opacity="0.1" d="M101.026 83.0717L123.893 84.7862L122.628 100.527L101.026 101.16V83.0717Z" fill="#0B0C11"/>
<path d="M108.057 77.5509L101.026 83.0717L123.893 84.7862L127.63 79.1364L108.057 77.5509Z" fill="#00794E"/>
<path d="M75.054 80.1513L92.2202 78.0571L101.026 83.0717L81.9581 86.1806L75.054 80.1513Z" fill="#00794E"/>
<path d="M105.206 87.7686V112.499L96.2741 111.581L92.3886 111.184L91.2049 111.06L87.322 110.66L81.9581 110.11V86.1806L101.024 87.4808L105.206 87.7686Z" fill="#00794E"/>
<path d="M123.893 84.7862V108.904L116.734 110.281L113.252 110.951L105.206 112.499V87.7686L123.893 84.7862Z" fill="#00794E"/>
<path opacity="0.05" d="M123.893 84.7862V108.904L116.734 110.281L113.252 110.951L105.206 112.499V87.7686L123.893 84.7862Z" fill="#0B0C11"/>
<path d="M75.054 91.3863L81.9581 86.1806L105.206 87.7686L101.784 93.545L75.054 91.3863Z" fill="#00794E"/>
<path opacity="0.1" d="M75.054 91.3863L81.9581 86.1806L105.206 87.7686L101.784 93.545L75.054 91.3863Z" fill="white"/>
<path d="M123.893 84.7862L105.206 87.7686L111.288 93.2274L131.305 89.8628L123.893 84.7862Z" fill="#00794E"/>
<path opacity="0.1" d="M123.893 84.7862L105.206 87.7686L111.288 93.2274L131.305 89.8628L123.893 84.7862Z" fill="white"/>
<path opacity="0.1" d="M116.734 110.281L113.252 110.951V105.797L116.513 104.974L116.734 110.281Z" fill="white"/>
<path opacity="0.1" d="M96.274 108.172V111.581L92.3885 111.184V108.172H96.274Z" fill="white"/>
<path opacity="0.1" d="M91.205 109.246V111.06L87.322 110.66V109.246H91.205Z" fill="white"/>
<path opacity="0.1" d="M102.869 106.363C100.206 109.775 91.4153 107.418 91.4153 107.418L84.8826 100.589L83.9961 99.6637L85.7296 96.4381C85.7296 96.4381 86.2248 96.6018 87.0519 96.8896C91.4302 98.423 105.11 103.492 102.869 106.363Z" fill="#0B0C11"/>
<path d="M102.621 105.867C99.9589 109.278 91.1678 106.921 91.1678 106.921L84.6351 100.093L83.7485 99.1674L85.482 95.9418C85.482 95.9418 85.9773 96.1056 86.8044 96.3934C91.1826 97.9268 104.862 102.996 102.621 105.867Z" fill="#EFB7B9"/>
<path opacity="0.1" d="M86.7945 96.3934C86.4329 97.4355 85.5142 98.9788 84.6252 100.093L83.7386 99.1674L85.4721 95.9418C85.4721 95.9418 85.9699 96.1056 86.7945 96.3934Z" fill="#0B0C11"/>
<path d="M65.1658 57.8053C65.1658 57.8053 58.6653 60.2865 58.6034 67.234C58.5886 71.7109 58.8367 76.1849 59.3463 80.6326C59.3463 80.6326 57.489 90.9918 62.7513 93.9692C68.0136 96.9467 72.9045 99.428 72.9045 99.428C72.9045 99.428 81.3118 100.793 82.3444 101.227C83.3771 101.661 86.9653 96.0783 86.4081 95.1478C85.851 94.2174 78.1965 91.9222 77.2877 90.3715C76.3788 88.8207 74.1402 87.7761 74.1402 87.7761C74.1402 87.7761 71.857 86.2154 71.7653 84.9127C71.6737 83.6101 72.3473 82.6796 72.538 82.1214C72.7286 81.5631 73.4196 76.1044 73.4196 76.1044C73.4196 76.1044 77.1143 56.7384 65.1658 57.8053Z" fill="#DCE6F2"/>
<path opacity="0.1" d="M68.1375 80.8063C68.1375 80.8063 59.3464 81.7988 60.0274 84.9003C60.0274 84.9003 63.368 81.7715 68.1375 80.8063Z" fill="#0B0C11"/>
<path opacity="0.1" d="M68.1375 82.0469C68.1375 82.0469 63.1476 85.7067 64.0639 85.9549C64.9801 86.203 68.1375 82.0469 68.1375 82.0469Z" fill="#0B0C11"/>
<path opacity="0.1" d="M70.3663 83.5357C70.3663 83.5357 68.9424 86.1012 69.7472 85.9673C70.552 85.8333 70.3663 83.5357 70.3663 83.5357Z" fill="#0B0C11"/>
<path d="M161.898 27.8866C161.898 27.8866 152.488 27.3184 153.587 33.9333C153.587 33.9333 153.367 35.102 154.424 35.633C154.424 35.633 154.442 35.1367 155.39 35.3079C155.728 35.3649 156.071 35.3816 156.413 35.3576C156.876 35.3266 157.316 35.1445 157.666 34.839C157.666 34.839 160.313 33.7448 161.343 29.4076C161.343 29.4076 162.106 28.4597 162.086 28.2166L160.496 28.8989C160.496 28.8989 161.039 30.0477 160.61 31.003C160.61 31.003 160.561 28.9411 160.254 28.9882C160.192 28.9882 159.429 29.3877 159.429 29.3877C159.429 29.3877 160.363 31.3876 159.657 32.8441C159.657 32.8441 159.924 30.3777 159.137 29.5316L158.018 30.1867C158.018 30.1867 159.11 32.2535 158.369 33.9408C158.369 33.9408 158.56 31.3529 157.782 30.3455L156.767 31.137C156.767 31.137 157.795 33.1766 157.168 34.576C157.168 34.576 157.086 31.5638 156.547 31.3355C156.547 31.3355 155.66 32.1196 155.526 32.4421C155.526 32.4421 156.227 33.9309 155.791 34.7025C155.791 34.7025 155.524 32.6952 155.296 32.6853C155.296 32.6853 154.412 34.0152 154.32 34.9184C154.363 34.0764 154.625 33.2603 155.081 32.5513C154.571 32.6479 154.101 32.892 153.728 33.2535C153.728 33.2535 153.865 32.3131 155.298 32.2312C155.298 32.2312 156.041 31.2213 156.225 31.1593C156.225 31.1593 154.798 31.0402 153.934 31.4248C153.934 31.4248 154.694 30.539 156.487 30.9286L157.478 30.1098C157.478 30.1098 155.601 29.8616 154.803 30.1371C154.803 30.1371 155.719 29.353 157.748 29.9237L158.837 29.2711C158.837 29.2711 157.237 28.9237 156.284 29.0503C156.284 29.0503 157.289 28.5069 159.157 29.0949L159.937 28.7451C159.937 28.7451 158.763 28.5143 158.421 28.4771C158.079 28.4399 158.06 28.3456 158.06 28.3456C158.802 28.2218 159.565 28.3077 160.261 28.5937C160.261 28.5937 161.933 27.9908 161.898 27.8866Z" fill="#00794E"/>
<path opacity="0.1" d="M190.49 60.9713C190.49 60.9713 181.08 60.4031 182.18 67.0181C182.18 67.0181 181.959 68.1868 183.017 68.7177C183.017 68.7177 183.034 68.2215 183.985 68.3927C184.323 68.4497 184.666 68.4663 185.008 68.4423C185.465 68.4091 185.9 68.228 186.246 67.9262C186.246 67.9262 188.896 66.8295 189.926 62.4923C189.926 62.4923 190.686 61.547 190.656 61.3038L189.066 61.9837C189.066 61.9837 189.609 63.1325 189.183 64.0878C189.183 64.0878 189.131 62.0259 188.826 62.073C188.764 62.073 187.999 62.4725 187.999 62.4725C187.999 62.4725 188.935 64.4748 188.229 65.9288C188.229 65.9288 188.497 63.4625 187.707 62.6164L186.6 63.264C186.6 63.264 187.692 65.3309 186.952 67.0181C186.952 67.0181 187.142 64.4302 186.365 63.4228L185.352 64.2168C185.352 64.2168 186.377 66.2539 185.753 67.6533C185.753 67.6533 185.671 64.6411 185.131 64.4128C185.131 64.4128 184.245 65.1969 184.109 65.5194C184.109 65.5194 184.812 67.0082 184.376 67.7798C184.376 67.7798 184.109 65.7725 183.881 65.7626C183.881 65.7626 182.997 67.0925 182.905 67.9957C182.949 67.1536 183.212 66.3376 183.668 65.6286C183.158 65.7254 182.687 65.9695 182.313 66.3308C182.313 66.3308 182.452 65.3904 183.886 65.3085C183.886 65.3085 184.616 64.2987 184.812 64.2366C184.812 64.2366 183.386 64.1175 182.521 64.5021C182.521 64.5021 183.282 63.6163 185.072 64.0183L186.063 63.1995C186.063 63.1995 184.183 62.9514 183.388 63.2268C183.388 63.2268 184.304 62.4427 186.332 63.0134L187.422 62.3608C187.422 62.3608 185.82 62.0159 184.866 62.14C184.866 62.14 185.874 61.5966 187.742 62.1846L188.522 61.8348C188.522 61.8348 187.348 61.604 187.004 61.5668C186.659 61.5296 186.642 61.4353 186.642 61.4353C187.385 61.3114 188.149 61.3973 188.846 61.6834C188.846 61.6834 190.52 61.0755 190.49 60.9713Z" fill="#00794E"/>
<path opacity="0.1" d="M133.323 55.0982C133.323 55.0982 135.49 45.8954 128.794 45.8631C128.794 45.8631 127.682 45.4463 126.981 46.399C126.981 46.399 127.459 46.5008 127.135 47.4089C127.022 47.73 126.948 48.0631 126.912 48.4014C126.864 48.8626 126.967 49.3269 127.206 49.7239C127.206 49.7239 127.833 52.5277 131.912 54.2844C131.912 54.2844 132.714 55.1975 132.957 55.2074L132.56 53.5227C132.56 53.5227 131.337 53.8626 130.47 53.2745C130.47 53.2745 132.508 53.5748 132.511 53.2745C132.511 53.2125 132.263 52.3912 132.263 52.3912C132.263 52.3912 130.136 52.9718 128.823 52.0265C128.823 52.0265 131.203 52.7113 132.172 52.0786L131.726 50.8578C131.726 50.8578 129.497 51.5848 127.972 50.565C127.972 50.565 130.485 51.1953 131.609 50.5998L131.003 49.4634C131.003 49.4634 128.823 50.1283 127.553 49.2723C127.553 49.2723 130.525 49.704 130.847 49.2128C130.847 49.2128 130.228 48.2029 129.933 48.0143C129.933 48.0143 128.358 48.456 127.665 47.8928C127.665 47.8928 129.683 47.9697 129.73 47.7563C129.73 47.7563 128.573 46.6571 127.692 46.409C128.513 46.5964 129.272 46.9949 129.893 47.5652C129.884 47.0452 129.724 46.5391 129.433 46.1087C129.433 46.1087 130.334 46.4065 130.176 47.8456C130.176 47.8456 131.042 48.7389 131.07 48.9423C131.07 48.9423 131.429 47.5553 131.198 46.6348C131.198 46.6348 131.941 47.5379 131.24 49.2376L131.874 50.3665C131.874 50.3665 132.449 48.5552 132.303 47.7215C132.303 47.7215 132.919 48.7587 132.011 50.6643L132.469 51.8528C132.469 51.8528 133.08 50.3293 133.12 49.3716C133.12 49.3716 133.484 50.4583 132.585 52.2027L132.798 53.0314C132.798 53.0314 133.224 51.9123 133.318 51.5799C133.412 51.2474 133.509 51.2449 133.509 51.2449C133.505 51.9998 133.291 52.7386 132.892 53.3788C132.892 53.3788 133.217 55.1107 133.323 55.0982Z" fill="#00794E"/>
<path opacity="0.1" d="M112.715 58.2345C112.715 58.2345 105.157 52.5699 102.455 58.706C102.455 58.706 101.631 59.562 102.222 60.5867C102.222 60.5867 102.505 60.1873 103.213 60.8497C103.464 61.0836 103.741 61.2868 104.04 61.4552C104.444 61.6808 104.911 61.7679 105.37 61.7033C105.37 61.7033 108.183 62.2467 111.422 59.1923C111.422 59.1923 112.579 58.8201 112.688 58.6018L110.981 58.3015C110.981 58.3015 110.803 59.5595 109.924 60.1227C109.924 60.1227 111.011 58.371 110.729 58.2445C110.672 58.2172 109.82 58.1204 109.82 58.1204C109.82 58.1204 109.503 60.3088 108.116 61.1351C108.116 61.1351 109.694 59.2221 109.498 58.0807L108.203 58.0112C108.203 58.0112 107.982 60.3411 106.437 61.3435C106.437 61.3435 108.015 59.2866 107.923 58.0162L106.64 58.1204C106.64 58.1204 106.38 60.3858 105.09 61.2095C105.09 61.2095 106.672 58.6489 106.348 58.1626C106.348 58.1626 105.177 58.3288 104.887 58.5224C104.887 58.5224 104.662 60.1451 103.869 60.557C103.869 60.557 104.748 58.7333 104.57 58.6067C104.57 58.6067 103.101 59.2295 102.524 59.9391C103.024 59.2597 103.691 58.7226 104.461 58.3809C103.982 58.1814 103.455 58.1263 102.945 58.2221C102.945 58.2221 103.574 57.5125 104.818 58.2345C104.818 58.2345 105.981 57.7954 106.18 57.8499C106.18 57.8499 105.053 56.9641 104.119 56.8103C104.119 56.8103 105.244 56.4877 106.519 57.8028L107.804 57.6713C107.804 57.6713 106.375 56.4307 105.556 56.2222C105.556 56.2222 106.752 56.0709 108.131 57.6638L109.399 57.7209C109.399 57.7209 108.252 56.5498 107.388 56.128C107.388 56.128 108.525 56.2272 109.763 57.7482L110.607 57.8847C110.607 57.8847 109.753 57.046 109.486 56.8277C109.218 56.6093 109.255 56.5175 109.255 56.5175C109.944 56.8232 110.535 57.3145 110.961 57.9368C110.961 57.9368 112.683 58.3363 112.715 58.2345Z" fill="#00794E"/>
<path opacity="0.1" d="M137.877 5.60511C137.877 5.60511 130.319 -0.0620322 127.617 6.07654C127.617 6.07654 126.793 6.93256 127.385 7.95731C127.385 7.95731 127.667 7.55784 128.375 8.22032C128.627 8.45296 128.906 8.6553 129.205 8.82326C129.609 9.04909 130.076 9.13622 130.535 9.07139C130.535 9.07139 133.348 9.61478 136.587 6.5579C136.587 6.5579 137.743 6.18819 137.85 5.96737L136.144 5.6721C136.144 5.6721 135.968 6.93008 135.086 7.49332C135.086 7.49332 136.176 5.74157 135.894 5.61503C135.837 5.58774 134.985 5.49097 134.985 5.49097C134.985 5.49097 134.658 7.68438 133.271 8.50567C133.271 8.50567 134.846 6.59264 134.653 5.45127L133.358 5.38179C133.358 5.38179 133.135 7.71167 131.592 8.71161C131.592 8.71161 133.17 6.65467 133.078 5.38428L131.798 5.48849C131.798 5.48849 131.535 7.75633 130.245 8.5801C130.245 8.5801 131.83 6.01947 131.505 5.53315C131.505 5.53315 130.334 5.69939 130.044 5.89293C130.044 5.89293 129.819 7.51565 129.027 7.92754C129.027 7.92754 129.906 6.10383 129.727 5.97481C129.727 5.97481 128.259 6.60008 127.682 7.30971C128.18 6.62953 128.848 6.09225 129.618 5.7515C129.139 5.55053 128.611 5.49531 128.1 5.5927C128.1 5.5927 128.732 4.88307 129.975 5.60511C129.975 5.60511 131.139 5.16344 131.337 5.22051C131.337 5.22051 130.21 4.33471 129.277 4.1784C129.277 4.1784 130.398 3.85832 131.674 5.17089L132.959 5.03938C132.959 5.03938 131.533 3.79877 130.71 3.58786C130.71 3.58786 131.907 3.43899 133.288 5.03194L134.556 5.08653C134.556 5.08653 133.41 3.91539 132.543 3.49606C132.543 3.49606 133.682 3.59531 134.92 5.1163L135.762 5.25277C135.762 5.25277 134.905 4.42404 134.638 4.21065C134.371 3.99727 134.408 3.90298 134.408 3.90298C135.097 4.20832 135.688 4.69972 136.114 5.32224C136.114 5.32224 137.835 5.69939 137.877 5.60511Z" fill="#00794E"/>
<path opacity="0.1" d="M166.757 12.7833C166.757 12.7833 163.735 3.82358 158.037 7.34445C158.037 7.34445 156.873 7.59257 156.782 8.76123C156.782 8.76123 157.24 8.59251 157.443 9.53538C157.518 9.87077 157.632 10.1963 157.782 10.5055C157.987 10.9217 158.321 11.2603 158.733 11.4707C158.733 11.4707 160.744 13.5178 165.142 12.8404C165.142 12.8404 166.303 13.1927 166.516 13.0711L165.278 11.8528C165.278 11.8528 164.421 12.7883 163.376 12.7511C163.376 12.7511 165.266 11.9273 165.11 11.6618C165.078 11.6097 164.431 11.0464 164.431 11.0464C164.431 11.0464 162.931 12.6667 161.321 12.56C161.321 12.56 163.701 11.8801 164.186 10.8231L163.161 10.0316C163.161 10.0316 161.66 11.8231 159.82 11.7685C159.82 11.7685 162.297 10.972 162.923 9.87034L161.809 9.22771C161.809 9.22771 160.323 10.9472 158.783 10.8926C158.783 10.8926 161.536 9.68425 161.544 9.09868C161.544 9.09868 160.487 8.57018 160.137 8.56522C160.137 8.56522 159.033 9.77358 158.156 9.6644C158.156 9.6644 159.91 8.6595 159.835 8.45356C159.835 8.45356 158.275 8.13348 157.396 8.39153C158.191 8.11414 159.045 8.04999 159.872 8.20544C159.59 7.76849 159.186 7.42358 158.711 7.21294C158.711 7.21294 159.632 6.98715 160.249 8.28732C160.249 8.28732 161.457 8.58755 161.586 8.74386C161.586 8.74386 161.16 7.37671 160.479 6.7167C160.479 6.7167 161.586 7.09136 161.888 8.90514L163.022 9.52545C163.022 9.52545 162.554 7.68686 161.99 7.04422C161.99 7.04422 163.062 7.60002 163.295 9.69666L164.31 10.4634C164.31 10.4634 164.028 8.8456 163.552 8.00694C163.552 8.00694 164.434 8.73642 164.592 10.6941L165.209 11.2846C165.209 11.2846 164.981 10.1085 164.887 9.77606C164.793 9.44357 164.87 9.42124 164.87 9.42124C165.263 10.0649 165.472 10.8052 165.471 11.5601C165.471 11.5601 166.67 12.8478 166.757 12.7833Z" fill="#00794E"/>
<path opacity="0.1" d="M147.04 13.225C147.04 13.225 137.654 12.1779 138.429 18.8499C138.429 18.8499 138.15 20.0062 139.172 20.5868C139.172 20.5868 139.214 20.0905 140.163 20.3139C140.498 20.3861 140.84 20.4202 141.183 20.4156C141.646 20.4072 142.094 20.2478 142.458 19.9615C142.458 19.9615 145.16 19.0013 146.421 14.7212C146.421 14.7212 147.228 13.8155 147.211 13.5699L145.589 14.1703C145.589 14.1703 146.084 15.3439 145.589 16.2769C145.589 16.2769 145.641 14.215 145.341 14.2472C145.279 14.2472 144.497 14.6045 144.497 14.6045C144.497 14.6045 145.329 16.6516 144.551 18.0783C144.551 18.0783 144.942 15.6268 144.197 14.7435L143.045 15.339C143.045 15.339 144.036 17.4604 143.206 19.108C143.206 19.108 143.528 16.5325 142.803 15.4879L141.75 16.2322C141.75 16.2322 142.671 18.3189 141.976 19.6861C141.976 19.6861 142.047 16.6739 141.52 16.4183C141.52 16.4183 140.594 17.1627 140.443 17.4704C140.443 17.4704 141.069 18.9839 140.596 19.7407C140.596 19.7407 140.43 17.7234 140.212 17.7036C140.212 17.7036 139.261 18.9864 139.123 19.892C139.209 19.0524 139.513 18.25 140.004 17.5646C139.491 17.6358 139.009 17.8557 138.618 18.1974C138.618 18.1974 138.801 17.2669 140.237 17.257C140.237 17.257 141.017 16.2868 141.228 16.2347C141.228 16.2347 139.809 16.0436 138.925 16.3836C138.925 16.3836 139.73 15.535 141.498 16.0288L142.54 15.2621C142.54 15.2621 140.656 14.88 139.858 15.1281C139.858 15.1281 140.814 14.3837 142.81 15.066L143.932 14.4681C143.932 14.4681 142.35 14.0413 141.391 14.1182C141.391 14.1182 142.424 13.622 144.259 14.3093L145.056 13.9991C145.056 13.9991 143.895 13.7088 143.553 13.6542C143.211 13.5996 143.199 13.5053 143.199 13.5053C143.948 13.4193 144.705 13.543 145.388 13.8626C145.388 13.8626 147.057 13.3292 147.04 13.225Z" fill="#00794E"/>
<path opacity="0.1" d="M229.156 86.2154C229.156 86.2154 219.776 85.1683 220.551 91.8329C220.551 91.8329 220.271 92.9892 221.294 93.5698C221.294 93.5698 221.336 93.0735 222.284 93.2943C222.619 93.3691 222.962 93.4032 223.305 93.3961C223.768 93.389 224.216 93.2294 224.58 92.942C224.58 92.942 227.282 91.9818 228.53 87.7041C228.53 87.7041 229.337 86.796 229.32 86.5528L227.698 87.1508C227.698 87.1508 228.193 88.3269 227.698 89.2599C227.698 89.2599 227.75 87.1955 227.45 87.2302C227.388 87.2302 226.606 87.585 226.606 87.585C226.606 87.585 227.438 89.632 226.66 91.0588C226.66 91.0588 227.051 88.6098 226.306 87.724L225.154 88.322C225.154 88.322 226.145 90.4434 225.318 92.0909C225.318 92.0909 225.637 89.5154 224.912 88.4683L223.859 89.2127C223.859 89.2127 224.781 91.2994 224.085 92.6641C224.085 92.6641 224.157 89.6519 223.629 89.3988C223.629 89.3988 222.705 90.1432 222.552 90.4509C222.552 90.4509 223.181 91.9644 222.705 92.7212C222.705 92.7212 222.539 90.7039 222.322 90.6841C222.322 90.6841 221.371 91.9669 221.232 92.8725C221.318 92.0329 221.622 91.2305 222.113 90.5451C221.599 90.615 221.117 90.8351 220.727 91.1779C220.727 91.1779 220.91 90.2449 222.346 90.235C222.346 90.235 223.129 89.2648 223.337 89.2152C223.337 89.2152 221.918 89.0217 221.034 89.3616C221.034 89.3616 221.839 88.5155 223.609 89.0093L224.649 88.2426C224.649 88.2426 222.787 87.8902 221.977 88.1334C221.977 88.1334 222.933 87.389 224.929 88.0689L226.051 87.4734C226.051 87.4734 224.469 87.0466 223.51 87.1235C223.51 87.1235 224.543 86.6273 226.378 87.3146L227.175 87.0019C227.175 87.0019 226.014 86.7116 225.672 86.6595C225.33 86.6074 225.318 86.5107 225.318 86.5107C226.066 86.423 226.824 86.5459 227.507 86.8655C227.507 86.8655 229.181 86.3221 229.156 86.2154Z" fill="#00794E"/>
<path opacity="0.1" d="M243.497 94.994C243.497 94.994 234.116 93.9494 234.892 100.611C234.892 100.611 234.614 101.768 235.635 102.348C235.635 102.348 235.677 101.852 236.625 102.075C236.959 102.148 237.301 102.182 237.643 102.175C238.104 102.165 238.549 102.007 238.913 101.723C238.913 101.723 241.612 100.763 242.861 96.4827C242.861 96.4827 243.67 95.5771 243.651 95.3314L242.028 95.9294C242.028 95.9294 242.524 97.1055 242.028 98.0385C242.028 98.0385 242.081 95.9766 241.781 96.0088C241.719 96.0088 240.936 96.3636 240.936 96.3636C240.936 96.3636 241.768 98.4106 240.991 99.8374C240.991 99.8374 241.382 97.3884 240.637 96.5051L239.485 97.1006C239.485 97.1006 240.476 99.222 239.649 100.87C239.649 100.87 239.968 98.294 239.243 97.2494L238.19 97.9938C238.19 97.9938 239.111 100.081 238.418 101.448C238.418 101.448 238.487 98.433 237.96 98.1799C237.96 98.1799 237.036 98.9243 236.883 99.2319C236.883 99.2319 237.512 100.745 237.036 101.502C237.036 101.502 236.87 99.485 236.652 99.4652C236.652 99.4652 235.701 100.748 235.565 101.654C235.651 100.814 235.954 100.012 236.444 99.3262C235.93 99.3974 235.448 99.6173 235.058 99.9589C235.058 99.9589 235.243 99.026 236.68 99.0185C236.68 99.0185 237.46 98.0484 237.67 97.9963C237.67 97.9963 236.251 97.8052 235.367 98.1452C235.367 98.1452 236.172 97.2966 237.942 97.7903L238.983 97.0236C238.983 97.0236 237.12 96.6713 236.311 96.9145C236.311 96.9145 237.266 96.1701 239.262 96.8524L240.384 96.2545C240.384 96.2545 238.802 95.8277 237.843 95.9046C237.843 95.9046 238.876 95.4084 240.711 96.0957L241.508 95.7855C241.508 95.7855 240.347 95.4952 240.008 95.4406C239.669 95.386 239.651 95.2917 239.651 95.2917C240.4 95.2057 241.158 95.3294 241.84 95.649C241.84 95.649 243.522 95.1007 243.497 94.994Z" fill="#00794E"/>
<path opacity="0.1" d="M211.658 21.0508C211.658 21.0508 204.1 15.3861 201.399 21.5222C201.399 21.5222 200.574 22.3782 201.166 23.403C201.166 23.403 201.448 23.0035 202.157 23.666C202.407 23.8998 202.685 24.1031 202.984 24.2714C203.388 24.4969 203.855 24.584 204.313 24.5195C204.313 24.5195 207.127 25.0629 210.368 22.0085C210.368 22.0085 211.522 21.6363 211.631 21.418L209.93 21.1103C209.93 21.1103 209.752 22.3683 208.872 22.9316C208.872 22.9316 209.96 21.1798 209.677 21.0533C209.62 21.026 208.771 20.9292 208.771 20.9292C208.771 20.9292 208.451 23.1176 207.065 23.9439C207.065 23.9439 208.642 22.0309 208.446 20.8895L207.151 20.82C207.151 20.82 206.931 23.1499 205.386 24.1523C205.386 24.1523 206.966 22.0954 206.872 20.825L205.589 20.9292C205.589 20.9292 205.341 23.1946 204.039 24.0183C204.039 24.0183 205.623 21.4577 205.297 20.9714C205.297 20.9714 204.125 21.1376 203.835 21.3312C203.835 21.3312 203.613 22.9539 202.82 23.3658C202.82 23.3658 203.697 21.5421 203.519 21.4155C203.519 21.4155 202.05 22.0383 201.473 22.7479C201.972 22.0685 202.64 21.5314 203.41 21.1897C202.931 20.9902 202.404 20.9351 201.894 21.0309C201.894 21.0309 202.525 20.3213 203.769 21.0433C203.769 21.0433 204.93 20.6042 205.128 20.6587C205.128 20.6587 204.001 19.7729 203.068 19.6191C203.068 19.6191 204.192 19.2965 205.467 20.6116L206.753 20.4801C206.753 20.4801 205.326 19.2395 204.504 19.0311C204.504 19.0311 205.7 18.8797 207.08 20.4726L208.35 20.5297C208.35 20.5297 207.201 19.3586 206.337 18.9368C206.337 18.9368 207.476 19.036 208.711 20.557L209.556 20.6935C209.556 20.6935 208.702 19.8548 208.434 19.6365C208.167 19.4181 208.206 19.3462 208.206 19.3462C208.894 19.6523 209.484 20.1436 209.91 20.7654C209.91 20.7654 211.626 21.1525 211.658 21.0508Z" fill="#00794E"/>
<path opacity="0.1" d="M217.498 61.9465C217.498 61.9465 214.892 52.8577 209.033 56.1205C209.033 56.1205 207.859 56.3016 207.713 57.4777C207.713 57.4777 208.179 57.3314 208.34 58.2817C208.4 58.6231 208.499 58.9562 208.637 59.2742C208.821 59.7017 209.139 60.0573 209.543 60.2865C209.543 60.2865 211.46 62.4204 215.883 61.944C215.883 61.944 217.027 62.3459 217.245 62.2368L216.074 60.9614C216.074 60.9614 215.175 61.8596 214.135 61.7752C214.135 61.7752 216.056 61.0309 215.908 60.7654C215.878 60.7108 215.259 60.1178 215.259 60.1178C215.259 60.1178 213.689 61.671 212.084 61.4899C212.084 61.4899 214.494 60.9192 215.024 59.892L214.033 59.0533C214.033 59.0533 212.453 60.7753 210.618 60.6413C210.618 60.6413 213.114 59.954 213.803 58.8846L212.718 58.1923C212.718 58.1923 211.146 59.8424 209.62 59.7183C209.62 59.7183 212.426 58.634 212.461 58.0509C212.461 58.0509 211.425 57.4753 211.076 57.4554C211.076 57.4554 209.92 58.6117 209.041 58.4628C209.041 58.4628 210.839 57.5373 210.774 57.3289C210.774 57.3289 209.229 56.9393 208.34 57.1552C209.145 56.916 209.999 56.8912 210.816 57.0832C210.554 56.6343 210.167 56.272 209.702 56.0411C209.702 56.0411 210.633 55.855 211.188 57.1825C211.188 57.1825 212.379 57.5348 212.503 57.6986C212.503 57.6986 212.139 56.3116 211.487 55.6243C211.487 55.6243 212.577 56.0461 212.797 57.8723L213.902 58.5447C213.902 58.5447 213.516 56.6838 212.981 56.0287C212.981 56.0287 214.026 56.6317 214.167 58.7357L215.157 59.5471C215.157 59.5471 214.947 57.9194 214.511 57.0659C214.511 57.0659 215.36 57.835 215.43 59.7952L216.019 60.4155C216.019 60.4155 215.846 59.2295 215.772 58.8921C215.697 58.5546 215.772 58.5075 215.772 58.5075C216.138 59.1674 216.314 59.9166 216.279 60.6711C216.279 60.6711 217.408 62.006 217.498 61.9465Z" fill="#00794E"/>
<path opacity="0.1" d="M159.446 82.4265C159.446 82.4265 154.387 74.4419 149.689 79.2208C149.689 79.2208 148.615 79.717 148.803 80.8956C148.803 80.8956 149.211 80.6227 149.632 81.4911C149.784 81.7989 149.972 82.0872 150.192 82.3496C150.487 82.7079 150.892 82.959 151.344 83.0642C151.344 83.0642 153.783 84.5728 157.894 82.8657C157.894 82.8657 159.105 82.9302 159.283 82.764L157.797 81.8707C157.797 81.8707 157.185 82.9873 156.163 83.1982C156.163 83.1982 157.802 81.9576 157.582 81.7293C157.54 81.6847 156.777 81.2926 156.777 81.2926C156.777 81.2926 155.705 83.223 154.115 83.5034C154.115 83.5034 156.267 82.2752 156.49 81.1388L155.303 80.6152C155.303 80.6152 154.271 82.7119 152.473 83.0965C152.473 83.0965 154.677 81.7343 155.036 80.5135L153.798 80.1562C153.798 80.1562 152.753 82.1834 151.255 82.4935C151.255 82.4935 153.642 80.6624 153.51 80.0917C153.51 80.0917 152.356 79.8312 152.025 79.9106C152.025 79.9106 151.24 81.3472 150.353 81.4514C150.353 81.4514 151.819 80.057 151.698 79.8734C151.698 79.8734 150.105 79.9354 149.313 80.3944C150.02 79.9356 150.834 79.6704 151.675 79.6252C151.299 79.2681 150.826 79.0292 150.316 78.9379C150.316 78.9379 151.155 78.4988 152.049 79.6153C152.049 79.6153 153.288 79.6153 153.458 79.7394C153.458 79.7394 152.716 78.4988 151.901 78.0348C151.901 78.0348 153.065 78.134 153.788 79.8237L155.038 80.1562C155.038 80.1562 154.144 78.4814 153.449 78.0025C153.449 78.0025 154.62 78.2854 155.345 80.2679L156.514 80.7641C156.514 80.7641 155.856 79.263 155.194 78.5608C155.194 78.5608 156.225 79.057 156.841 80.9204L157.584 81.3497C157.584 81.3497 157.089 80.2604 156.913 79.9602C156.737 79.66 156.807 79.5905 156.807 79.5905C157.342 80.1209 157.721 80.7901 157.899 81.5234C157.899 81.5234 159.379 82.5109 159.446 82.4265Z" fill="#00794E"/>
<path d="M192.697 41.6301C192.697 41.6301 187.885 33.4942 183.039 38.1241C183.039 38.1241 181.949 38.5956 182.103 39.7717C182.103 39.7717 182.516 39.5087 182.912 40.3895C183.054 40.7026 183.233 40.9975 183.445 41.2679C183.729 41.6338 184.126 41.8954 184.574 42.0122C184.574 42.0122 186.964 43.5953 191.127 42.0122C191.127 42.0122 192.335 42.114 192.518 41.9527L191.065 41.0148C191.065 41.0148 190.421 42.109 189.391 42.2901C189.391 42.2901 191.067 41.0917 190.857 40.8659C190.812 40.8188 190.064 40.4019 190.064 40.4019C190.064 40.4019 188.933 42.3001 187.34 42.5308C187.34 42.5308 189.529 41.3696 189.784 40.2431L188.616 39.6923C188.616 39.6923 187.519 41.7591 185.708 42.0892C185.708 42.0892 187.954 40.7964 188.351 39.5881L187.127 39.1911C187.127 39.1911 186.018 41.1761 184.512 41.449C184.512 41.449 186.954 39.6923 186.84 39.1191C186.84 39.1191 185.696 38.8214 185.354 38.8908C185.354 38.8908 184.525 40.3027 183.636 40.3796C183.636 40.3796 185.144 39.0348 185.03 38.8462C185.03 38.8462 183.435 38.8586 182.63 39.2928C183.351 38.8571 184.173 38.6176 185.015 38.5981C184.649 38.2292 184.183 37.9756 183.675 37.8686C183.675 37.8686 184.53 37.4542 185.409 38.5981C185.409 38.5981 186.647 38.6402 186.813 38.7668C186.813 38.7668 186.112 37.5262 185.31 37.015C185.31 37.015 186.469 37.149 187.14 38.8611L188.378 39.2333C188.378 39.2333 187.538 37.5311 186.855 37.0299C186.855 37.0299 188.019 37.35 188.682 39.3524L189.834 39.8908C189.834 39.8908 189.222 38.3698 188.596 37.6577C188.596 37.6577 189.609 38.1862 190.171 40.0669L190.896 40.5185C190.896 40.5185 190.431 39.4144 190.267 39.1092C190.104 38.804 190.173 38.737 190.173 38.737C190.692 39.2837 191.05 39.964 191.206 40.7021C191.206 40.7021 192.625 41.712 192.697 41.6301Z" fill="#00794E"/>
<path d="M162.255 58.7382C162.255 58.7382 162.502 49.2847 155.947 50.6171C155.947 50.6171 154.773 50.436 154.278 51.5129C154.278 51.5129 154.773 51.5129 154.635 52.4681C154.589 52.8088 154.584 53.1536 154.62 53.4954C154.665 53.959 154.861 54.395 155.177 54.736C155.177 54.736 156.358 57.3512 160.719 58.2395C160.719 58.2395 161.688 58.9715 161.93 58.9318L161.187 57.3636C161.187 57.3636 160.061 57.9442 159.092 57.5497C159.092 57.5497 161.148 57.4281 161.091 57.1254C161.091 57.0634 160.665 56.3091 160.665 56.3091C160.665 56.3091 158.699 57.314 157.225 56.654C157.225 56.654 159.701 56.8401 160.511 56.0238L159.82 54.9246C159.82 54.9246 157.795 56.0858 156.086 55.401C156.086 55.401 158.674 55.5052 159.654 54.6938L158.83 53.7013C158.83 53.7013 156.831 54.798 155.415 54.2174C155.415 54.2174 158.416 54.0363 158.634 53.4879C158.634 53.4879 157.822 52.6269 157.495 52.4954C157.495 52.4954 156.044 53.2398 155.251 52.8379C155.251 52.8379 157.233 52.5054 157.245 52.2845C157.245 52.2845 155.89 51.4434 154.977 51.3814C155.819 51.3965 156.643 51.6326 157.366 52.0662C157.253 51.559 156.995 51.0959 156.623 50.7338C156.623 50.7338 157.567 50.8405 157.696 52.2721C157.696 52.2721 158.728 52.9718 158.795 53.1654C158.795 53.1654 158.867 51.7337 158.453 50.8802C158.453 50.8802 159.365 51.6121 159.023 53.4185L159.872 54.3961C159.872 54.3961 160.065 52.5054 159.756 51.7188C159.756 51.7188 160.568 52.6096 160.068 54.6591L160.754 55.7285C160.754 55.7285 161.046 54.1132 160.89 53.1629C160.89 53.1629 161.465 54.1554 160.94 56.0436L161.316 56.8128C161.316 56.8128 161.507 55.6292 161.532 55.2843C161.556 54.9395 161.65 54.9171 161.65 54.9171C161.799 55.6573 161.74 56.4244 161.48 57.1329C161.48 57.1329 162.146 58.7705 162.255 58.7382Z" fill="#00794E"/>
<path opacity="0.1" d="M173.091 178.86C176.774 178.86 179.76 178.354 179.76 177.731C179.76 177.107 176.774 176.602 173.091 176.602C169.408 176.602 166.422 177.107 166.422 177.731C166.422 178.354 169.408 178.86 173.091 178.86Z" fill="#00794E"/>
<path opacity="0.1" d="M148.781 196C152.464 196 155.45 195.495 155.45 194.871C155.45 194.248 152.464 193.742 148.781 193.742C145.098 193.742 142.112 194.248 142.112 194.871C142.112 195.495 145.098 196 148.781 196Z" fill="#00794E"/>
<path opacity="0.1" d="M23.0649 187.219C26.748 187.219 29.7338 186.713 29.7338 186.09C29.7338 185.466 26.748 184.961 23.0649 184.961C19.3818 184.961 16.396 185.466 16.396 186.09C16.396 186.713 19.3818 187.219 23.0649 187.219Z" fill="#00794E"/>
<path opacity="0.1" d="M199.363 194.871C203.046 194.871 206.032 194.366 206.032 193.742C206.032 193.119 203.046 192.613 199.363 192.613C195.68 192.613 192.694 193.119 192.694 193.742C192.694 194.366 195.68 194.871 199.363 194.871Z" fill="#00794E"/>
<path d="M206.307 181.105C211.806 181.105 216.264 180.35 216.264 179.418C216.264 178.486 211.806 177.731 206.307 177.731C200.807 177.731 196.349 178.486 196.349 179.418C196.349 180.35 200.807 181.105 206.307 181.105Z" fill="#00794E"/>
<path d="M210.435 176.656C210.89 176.286 211.221 175.786 211.383 175.222C211.507 174.651 211.265 173.969 210.722 173.761C210.113 173.527 209.462 173.949 208.967 174.376C208.471 174.803 207.909 175.292 207.263 175.202C207.595 174.9 207.843 174.517 207.983 174.091C208.124 173.664 208.152 173.209 208.065 172.768C208.037 172.586 207.96 172.414 207.842 172.272C207.503 171.91 206.891 172.066 206.485 172.351C205.197 173.259 204.838 175.011 204.831 176.589C204.702 176.021 204.811 175.428 204.809 174.852C204.806 174.277 204.645 173.612 204.152 173.309C203.85 173.14 203.508 173.055 203.162 173.061C202.582 173.041 201.936 173.098 201.542 173.522C201.047 174.049 201.178 174.934 201.604 175.507C202.03 176.081 202.681 176.45 203.281 176.852C203.76 177.139 204.17 177.53 204.479 177.996C204.515 178.061 204.544 178.129 204.566 178.2H208.196C209.009 177.789 209.762 177.27 210.435 176.656Z" fill="#00794E"/>
<path d="M18.5878 180.842C18.5878 180.842 22.389 180.726 23.5405 179.907C24.692 179.088 29.3922 178.113 29.677 179.425C29.9618 180.738 35.3925 185.949 31.0984 185.983C26.8044 186.018 21.1211 185.313 19.977 184.614C18.8329 183.914 18.5878 180.842 18.5878 180.842Z" fill="#A8A8A8"/>
<path opacity="0.2" d="M31.1702 185.527C26.8762 185.561 21.1929 184.857 20.0488 184.157C19.1771 183.626 18.8305 181.718 18.7141 180.837H18.5878C18.5878 180.837 18.8354 183.911 19.9721 184.609C21.1087 185.306 26.7994 186.013 31.0935 185.978C32.3317 185.978 32.7601 185.527 32.7378 184.872C32.5644 185.271 32.0914 185.519 31.1702 185.527Z" fill="#0B0C11"/>
</g>
<defs>
<linearGradient id="paint0_linear" x1="55.2207" y1="107.542" x2="132.516" y2="107.542" gradientUnits="userSpaceOnUse">
<stop stop-color="#808080" stop-opacity="0.25"/>
<stop offset="0.54" stop-color="#808080" stop-opacity="0.12"/>
<stop offset="1" stop-color="#808080" stop-opacity="0.1"/>
</linearGradient>
<clipPath id="clip0">
<rect width="250" height="196" fill="white"/>
</clipPath>
</defs>
</svg>
